<svg xmlns="http://www.w3.org/2000/svg" width="1em" height="1em" viewBox="0 0 256 256"><path fill="currentColor" d="M224 108a12 12 0 0 0 0-24h-43.8l7.6-41.8a12 12 0 1 0-23.6-4.3L155.8 84h-39.6l7.6-41.8a12 12 0 1 0-23.6-4.3L91.8 84H43.6a12 12 0 1 0 0 24h43.8l-7.2 40H32a12 12 0 0 0 0 24h43.8l-7.6 41.9a11.9 11.9 0 0 0 9.7 13.9l2.1.2a12 12 0 0 0 11.8-9.8l8.4-46.2h39.6l-7.6 41.9a11.9 11.9 0 0 0 9.7 13.9l2.1.2a12 12 0 0 0 11.8-9.8l8.4-46.2h48.2a12 12 0 0 0 0-24h-43.8l7.2-40Zm-79.8 40h-39.6l7.2-40h39.6Z"/></svg>